<?xml version="1.0" encoding="UTF-8"?>
<svg xmlns="http://www.w3.org/2000/svg" xmlns:xlink="http://www.w3.org/1999/xlink" width="40pt" height="40pt" viewBox="0 0 40 40" version="1.1">
<g id="surface5867428">
<path style=" stroke:none;fill-rule:nonzero;fill:rgb(0%,0%,0%);fill-opacity:1;" d="M 4.207031 35.5 L 6.78125 32.925781 L 6.453125 32.574219 C 3.257812 29.144531 1.5 24.675781 1.5 20 C 1.5 9.800781 9.800781 1.5 20 1.5 C 20.777344 1.5 21.597656 1.5625 22.5 1.691406 L 22.5 5.722656 C 21.660156 5.574219 20.824219 5.5 20 5.5 C 12.003906 5.5 5.5 12.003906 5.5 20 C 5.5 23.578125 6.835938 27.023438 9.265625 29.699219 L 9.617188 30.089844 L 12.5 27.207031 L 12.5 35.5 Z M 4.207031 35.5 "/>
<path style=" stroke:none;fill-rule:nonzero;fill:rgb(0%,0%,0%);fill-opacity:1;" d="M 20 2 C 20.628906 2 21.285156 2.042969 22 2.128906 L 22 5.136719 C 21.328125 5.046875 20.660156 5 20 5 C 11.730469 5 5 11.730469 5 20 C 5 23.703125 6.382812 27.265625 8.894531 30.035156 L 9.597656 30.816406 L 12 28.414062 L 12 35 L 5.414062 35 L 7.476562 32.9375 L 6.816406 32.234375 C 3.710938 28.894531 2 24.550781 2 20 C 2 10.074219 10.074219 2 20 2 M 20 1 C 9.507812 1 1 9.507812 1 20 C 1 24.992188 2.933594 29.527344 6.085938 32.914062 L 3 36 L 13 36 L 13 26 L 9.636719 29.363281 C 7.386719 26.886719 6 23.613281 6 20 C 6 12.269531 12.269531 6 20 6 C 21.03125 6 22.03125 6.117188 23 6.328125 L 23 1.257812 C 22.019531 1.105469 21.023438 1 20 1 Z M 20 1 "/>
<path style=" stroke:none;fill-rule:nonzero;fill:rgb(0%,0%,0%);fill-opacity:1;" d="M 20 38.5 C 19.222656 38.5 18.402344 38.4375 17.5 38.308594 L 17.5 34.277344 C 18.339844 34.425781 19.175781 34.5 20 34.5 C 27.996094 34.5 34.5 27.996094 34.5 20 C 34.5 16.417969 33.164062 12.96875 30.738281 10.292969 L 30.386719 9.90625 L 27.5 12.792969 L 27.5 4.5 L 35.792969 4.5 L 33.210938 7.082031 L 33.539062 7.4375 C 36.738281 10.871094 38.5 15.335938 38.5 20 C 38.5 30.199219 30.199219 38.5 20 38.5 Z M 20 38.5 "/>
<path style=" stroke:none;fill-rule:nonzero;fill:rgb(0%,0%,0%);fill-opacity:1;" d="M 34.585938 5 L 32.515625 7.070312 L 33.175781 7.773438 C 36.285156 11.117188 38 15.460938 38 20 C 38 29.925781 29.925781 38 20 38 C 19.371094 38 18.714844 37.957031 18 37.871094 L 18 34.863281 C 18.671875 34.953125 19.339844 35 20 35 C 28.269531 35 35 28.269531 35 20 C 35 16.292969 33.617188 12.726562 31.109375 9.960938 L 30.40625 9.179688 L 28 11.585938 L 28 5 L 34.585938 5 M 37 4 L 27 4 L 27 14 L 30.367188 10.632812 C 32.617188 13.109375 34 16.386719 34 20 C 34 27.730469 27.730469 34 20 34 C 18.96875 34 17.96875 33.882812 17 33.671875 L 17 38.742188 C 17.980469 38.894531 18.976562 39 20 39 C 30.492188 39 39 30.492188 39 20 C 39 15.007812 37.058594 10.480469 33.90625 7.09375 Z M 37 4 "/>
</g>
</svg>
